# Blender 3.6.5
# www.blender.org
mtllib equioment_room.mtl
o Cube
v 55.975246 10.983773 -20.471838
v 45.310036 12.768871 -16.571249
v 55.975246 10.983773 20.471838
v 45.310036 12.768871 16.571249
v -45.310036 12.768871 -16.571249
v -55.975246 10.983773 -20.471838
v -45.310036 12.768871 16.571249
v -55.975246 10.983773 20.471838
v -52.673885 -12.768871 -6.358260
v -52.673885 3.143575 19.264431
v -52.673885 -12.768871 6.533935
v -52.673885 3.143575 -19.264431
v -52.673885 -1.992734 -6.365394
v -52.673885 -1.986382 6.531855
v 52.673885 3.143575 19.264431
v 52.673885 3.143575 -19.264431
v -59.387836 -1.992734 -6.365394
v -59.387836 -1.986382 6.531855
v -48.920265 -1.992734 -6.365394
v -48.920265 -12.768871 -6.358260
v -48.920265 -12.768871 6.533935
v -48.920265 -1.986382 6.531855
v -52.673885 -0.774780 -6.366200
v -52.673885 0.000000 -5.197801
v -52.673885 0.000000 -7.535625
v -52.673885 0.000000 5.362560
v -52.673885 -0.774780 6.531621
v -52.673885 0.000000 7.700384
v -58.086174 0.000000 5.362560
v -59.387836 -0.774780 6.531621
v -58.086174 0.000000 -5.197801
v -59.387836 -0.774780 -6.366200
v -50.426899 0.067050 -18.029987
v 48.179913 0.067050 -18.029987
v 48.179913 0.067050 18.033503
v -50.426899 0.067050 18.033503
v 48.179913 3.009475 18.033503
v -50.426899 3.009475 18.033503
v 48.179913 3.009475 -18.029987
v -50.426899 3.009475 -18.029987
v -50.426899 0.067050 -4.863449
v -50.426899 0.067050 -7.051682
v -50.426899 0.067050 7.209413
v -50.426899 0.067050 5.021179
v 24.404039 12.768871 15.559098
v -16.829952 12.768871 15.559098
v 24.404039 12.768871 -5.717280
v -16.829952 12.768871 -5.717280
v 24.404039 23.872929 15.559098
v -16.829952 23.872929 15.559098
v 24.404039 23.872929 -5.717280
v -16.829952 23.872929 -5.717280
v 22.921572 24.754286 14.794158
v -15.347484 24.754286 14.794158
v 22.921572 24.754286 -4.952341
v -15.347484 24.754286 -4.952341
v 52.673885 13.103723 19.264431
v 45.310036 14.888821 16.571249
v -45.310036 14.888821 16.571249
v -52.673885 13.103723 19.264431
v 52.673885 13.103723 -19.264431
v 45.310036 14.888821 -16.571249
v -45.310036 14.888821 -16.571249
v -52.673885 13.103723 -19.264431
v 49.503986 -12.768871 -19.264431
v 52.673885 -12.768871 -18.105103
v 52.673885 -12.768871 18.105103
v 49.503986 -12.768871 19.264431
v -52.673885 -12.768871 -18.105103
v -49.503986 -12.768871 -19.264431
v -49.503986 -12.768871 19.264431
v -52.673885 -12.768871 18.105103
v 52.673885 0.000000 -18.105103
v 49.503986 0.000000 -19.264431
v 50.142330 0.037771 -18.569042
v -52.673885 0.000000 18.105103
v -49.503986 0.000000 19.264431
v -50.917904 0.052399 18.302481
v 49.503986 0.000000 19.264431
v 52.673885 0.000000 18.105103
v 50.139736 0.037809 18.570312
v -49.503986 0.000000 -19.264431
v -52.673885 0.000000 -18.105103
v -50.921345 0.052296 -18.301628
vn -0.0000 -0.1522 -0.9883
vn -0.0000 -0.0007 -1.0000
vn -0.0000 -0.0000 1.0000
vn -0.0000 1.0000 -0.0000
vn -0.0000 -0.1522 0.9883
vn 1.0000 -0.0000 -0.0000
vn -0.0000 -1.0000 -0.0000
vn -0.0000 0.0002 1.0000
vn -1.0000 -0.0000 -0.0000
vn -0.5403 0.8415 -0.0000
vn -0.0000 0.4949 -0.8689
vn 0.5403 0.8415 -0.0000
vn 0.9216 -0.3881 -0.0000
vn -0.0298 0.9996 -0.0000
vn -0.9216 -0.3881 -0.0000
vn -0.0000 -0.0002 -1.0000
vn -0.0000 0.9985 -0.0542
vn -0.0000 -1.0000 0.0005
vn -0.0000 0.0007 1.0000
vn -0.5115 0.8593 -0.0000
vn -0.0000 0.8336 0.5524
vn -0.0000 0.8334 -0.5526
vn -0.0000 0.9985 0.0544
vn -0.0000 -0.0000 -1.0000
vn -0.0000 -0.9942 -0.1080
vn -0.0596 -0.9982 -0.0000
vn -0.0000 -0.9941 0.1083
vn 0.0149 0.9999 -0.0000
vn 0.0298 -0.9996 -0.0000
vn -0.0000 0.6555 -0.7552
vn 0.5110 0.8596 -0.0000
vn -0.5110 0.8596 -0.0000
vn -0.0000 0.6555 0.7552
vn -0.0000 0.8335 0.5525
vn 0.2356 0.9719 -0.0000
vn -0.2356 0.9719 -0.0000
vn -0.0000 0.8335 -0.5525
vn -0.0000 0.4949 0.8689
vn 0.0298 0.9962 -0.0815
vn -0.0427 0.9922 0.1169
vn 0.0298 0.9962 0.0816
vn -0.0427 0.9922 -0.1168
vn 0.3435 -0.0000 -0.9392
vn 0.3435 -0.0000 0.9392
vn -0.3435 -0.0000 -0.9392
vn -0.3435 -0.0000 0.9392
vt 0.134625 0.597556
vt 0.049508 0.606353
vt 0.049508 0.308064
vt 0.134625 0.316860
vt 0.775528 0.842351
vt 0.775528 0.855689
vt 0.757639 0.855689
vt 0.757639 0.842351
vt 0.571885 0.591479
vt 0.711724 0.591479
vt 0.711724 0.855283
vt 0.571885 0.855283
vt 0.245622 0.615009
vt 0.245847 0.856463
vt 0.170006 0.849160
vt 0.169862 0.694154
vt 0.563229 0.293820
vt 0.478114 0.302617
vt 0.478114 0.004328
vt 0.563228 0.013124
vt 0.423477 0.855982
vt 0.283717 0.855982
vt 0.283717 0.592178
vt 0.423477 0.592178
vt 0.852526 0.276579
vt 0.844082 0.285025
vt 0.580329 0.285024
vt 0.571884 0.276578
vt 0.571884 0.012774
vt 0.580329 0.004328
vt 0.844082 0.004329
vt 0.852526 0.012775
vt 0.852526 0.097075
vt 0.842527 0.097075
vt 0.842527 0.190999
vt 0.852526 0.190999
vt 0.690407 0.886417
vt 0.690407 0.873148
vt 0.708296 0.873148
vt 0.708296 0.886417
vt 0.868732 0.573823
vt 0.869548 0.455747
vt 0.869640 0.442401
vt 0.878215 0.433967
vt 0.955215 0.434465
vt 0.954310 0.574377
vt 0.776175 0.583033
vt 0.776175 0.824487
vt 0.752971 0.824487
vt 0.752971 0.583033
vt 0.188301 0.308064
vt 0.188301 0.606353
vt 0.164381 0.597556
vt 0.164381 0.316860
vt 0.025544 0.597556
vt 0.025544 0.316860
vt 0.339264 0.004328
vt 0.339264 0.302617
vt 0.315257 0.293820
vt 0.315257 0.013124
vt 0.424275 0.293820
vt 0.424275 0.013124
vt 0.182797 0.284925
vt 0.105861 0.284997
vt 0.108342 0.278984
vt 0.180355 0.278918
vt 0.273519 0.597556
vt 0.273519 0.316860
vt 0.254503 0.733094
vt 0.254503 0.615009
vt 0.264504 0.615009
vt 0.264504 0.733094
vt 0.925033 0.840655
vt 0.925103 0.746695
vt 0.938379 0.746696
vt 0.938379 0.840661
vt 0.279956 0.011050
vt 0.285024 0.012761
vt 0.285269 0.276389
vt 0.278258 0.280149
vt 0.276278 0.278828
vt 0.276034 0.016268
vt 0.731098 0.833143
vt 0.748983 0.833143
vt 0.748983 0.927104
vt 0.731098 0.927104
vt 0.721098 0.927104
vt 0.721098 0.833144
vt 0.182810 0.299336
vt 0.105874 0.299408
vt 0.861182 0.275088
vt 0.861197 0.156939
vt 0.955158 0.157008
vt 0.955106 0.275088
vt 0.264504 0.741750
vt 0.264504 0.859770
vt 0.254503 0.859770
vt 0.254503 0.741750
vt 0.861183 0.433857
vt 0.962465 0.284681
vt 0.954004 0.293226
vt 0.945434 0.284792
vt 0.947141 0.755213
vt 0.947141 0.832149
vt 0.690407 0.863939
vt 0.704828 0.863939
vt 0.761108 0.833143
vt 0.775528 0.833143
vt 0.870549 0.425201
vt 0.869633 0.285289
vt 0.954089 0.306502
vt 0.954847 0.424649
vt 0.088829 0.285012
vt 0.092400 0.278999
vt 0.276831 0.284838
vt 0.199829 0.284909
vt 0.196297 0.278903
vt 0.011585 0.280388
vt 0.004573 0.276650
vt 0.004328 0.013021
vt 0.009383 0.011309
vt 0.013299 0.016512
vt 0.013543 0.279072
vt 0.563229 0.574008
vt 0.530987 0.574008
vt 0.530987 0.311273
vt 0.563229 0.311273
vt 0.563229 0.391253
vt 0.563229 0.407195
vt 0.563229 0.479208
vt 0.563229 0.495150
vt 0.481432 0.845398
vt 0.449226 0.845398
vt 0.449226 0.582663
vt 0.481432 0.582663
vt 0.481450 0.574008
vt 0.449226 0.574008
vt 0.449226 0.311273
vt 0.481450 0.311273
vt 0.522331 0.574008
vt 0.490106 0.574008
vt 0.490106 0.311273
vt 0.522331 0.311273
vt 0.852527 0.574377
vt 0.571886 0.574377
vt 0.583828 0.565384
vt 0.846512 0.565384
vt 0.013027 0.285083
vt 0.852526 0.293681
vt 0.846511 0.302649
vt 0.571884 0.293681
vt 0.583827 0.302649
vt 0.012766 0.004573
vt 0.276570 0.004328
vt 0.784831 0.738039
vt 0.784831 0.583033
vt 0.906504 0.583033
vt 0.906504 0.738039
vt 0.004552 0.856687
vt 0.004328 0.615233
vt 0.060068 0.694256
vt 0.060212 0.849262
vt 0.559093 0.864180
vt 0.449226 0.864180
vt 0.453176 0.854054
vt 0.555143 0.854054
vt 0.681751 0.995672
vt 0.571885 0.995672
vt 0.571885 0.874065
vt 0.681751 0.874065
vt 0.559093 0.985788
vt 0.449226 0.985788
vt 0.916377 0.746695
vt 0.916377 0.901700
vt 0.794839 0.901700
vt 0.794839 0.746695
vt 0.861182 0.004423
vt 0.963081 0.004328
vt 0.963215 0.148188
vt 0.861316 0.148283
vt 0.784831 0.896127
vt 0.784831 0.752267
vt 0.916471 0.588606
vt 0.916471 0.732466
vt 0.575835 0.863939
vt 0.677801 0.863939
vt 0.432931 0.274200
vt 0.432931 0.032745
vt 0.454149 0.013124
vt 0.454149 0.293820
vt 0.293925 0.274200
vt 0.293925 0.032745
vt 0.143281 0.577935
vt 0.143281 0.336481
vt 0.004328 0.577935
vt 0.004328 0.336481
vt 0.554216 0.582663
vt 0.554216 0.824118
vt 0.530987 0.824118
vt 0.530987 0.582663
vt 0.744315 0.583033
vt 0.744315 0.824487
vt 0.721098 0.824487
vt 0.721098 0.583033
vt 0.522331 0.582663
vt 0.522331 0.824118
vt 0.499114 0.824118
vt 0.499114 0.582663
vt 0.424275 0.583522
vt 0.284434 0.583522
vt 0.283716 0.575076
vt 0.423558 0.575076
vt 0.572603 0.583033
vt 0.712442 0.583033
vt 0.963666 0.433857
vt 0.962761 0.573769
vt 0.862099 0.424593
vt 0.861183 0.284681
vt 0.283716 0.311273
vt 0.423558 0.311273
s 0
usemtl Material
f 12/1/1 6/2/1 1/3/1 16/4/1
f 23/5/2 13/6/2 17/7/2 32/8/2
f 68/9/3 79/10/3 77/11/3 71/12/3
f 5/13/4 7/14/4 46/15/4 48/16/4
f 15/17/5 3/18/5 8/19/5 10/20/5
f 66/21/6 73/22/6 80/23/6 67/24/6
f 69/25/7 70/26/7 65/27/7 66/28/7 67/29/7 68/30/7 71/31/7 72/32/7 11/33/7 21/34/7 20/35/7 9/36/7
f 14/37/8 27/38/8 30/39/8 18/40/8
f 9/41/9 13/42/9 23/43/9 25/44/9 83/45/9 69/46/9
f 7/47/6 5/48/6 63/49/6 59/50/6
f 6/51/10 8/52/10 60/53/10 64/54/10
f 1/3/11 6/2/11 64/55/11 61/56/11
f 3/57/12 1/58/12 61/59/12 57/60/12
f 16/61/13 1/58/13 3/57/13 15/62/13
f 24/63/14 26/64/14 44/65/14 41/66/14
f 10/67/15 8/52/15 6/51/15 12/68/15
f 11/69/16 14/70/16 22/71/16 21/72/16
f 17/73/9 18/74/9 30/75/9 32/76/9
f 75/77/17 74/78/17 82/79/17 84/80/17 33/81/17 34/82/17
f 14/83/18 18/84/18 17/85/18 13/86/18 19/87/18 22/88/18
f 26/64/4 24/63/4 31/89/4 29/90/4
f 21/91/9 22/92/9 19/93/9 20/94/9
f 13/95/19 9/96/19 20/97/19 19/98/19
f 23/43/9 24/99/9 25/44/9
f 26/100/9 27/101/9 28/102/9
f 29/103/20 31/104/20 32/76/20 30/75/20
f 26/105/21 29/106/21 30/39/21 27/38/21
f 23/5/22 32/8/22 31/107/22 24/108/22
f 72/109/9 76/110/9 28/102/9 27/101/9 14/111/9 11/112/9
f 26/64/14 28/113/14 43/114/14 44/65/14
f 84/80/14 83/115/14 25/116/14 42/117/14 33/81/14
f 78/118/23 77/119/23 79/120/23 81/121/23 35/122/23 36/123/23
f 36/124/9 38/125/9 40/126/9 33/127/9 42/128/9 41/129/9 44/130/9 43/131/9
f 34/132/6 39/133/6 37/134/6 35/135/6
f 35/136/3 37/137/3 38/138/3 36/139/3
f 33/140/24 40/141/24 39/142/24 34/143/24
f 12/144/25 16/145/25 39/146/25 40/147/25
f 28/113/14 76/148/14 78/118/14 36/123/14 43/114/14
f 10/149/26 12/144/26 40/147/26 38/150/26
f 15/151/27 10/149/27 38/150/27 37/152/27
f 81/121/28 80/153/28 73/154/28 75/77/28 34/82/28 35/122/28
f 16/145/29 15/151/29 37/152/29 39/146/29
f 25/116/14 24/63/14 41/66/14 42/117/14
f 48/155/9 46/156/9 50/157/9 52/158/9
f 4/159/4 2/160/4 47/161/4 45/162/4
f 7/14/4 4/159/4 45/162/4 46/15/4
f 2/160/4 5/13/4 48/16/4 47/161/4
f 51/163/30 52/164/30 56/165/30 55/166/30
f 46/167/3 45/168/3 49/169/3 50/170/3
f 47/171/24 48/172/24 52/164/24 51/163/24
f 45/173/6 47/174/6 51/175/6 49/176/6
f 55/177/4 56/178/4 54/179/4 53/180/4
f 49/176/31 51/175/31 55/181/31 53/182/31
f 52/158/32 50/157/32 54/183/32 56/184/32
f 50/170/33 49/169/33 53/185/33 54/186/33
f 58/187/34 59/188/34 60/189/34 57/190/34
f 62/191/35 58/192/35 57/60/35 61/59/35
f 59/193/36 63/194/36 64/54/36 60/53/36
f 63/195/37 62/196/37 61/56/37 64/55/37
f 2/197/9 4/198/9 58/199/9 62/200/9
f 8/19/38 3/18/38 57/190/38 60/189/38
f 4/201/24 7/202/24 59/203/24 58/204/24
f 5/205/3 2/206/3 62/207/3 63/208/3
f 73/154/39 74/78/39 75/77/39
f 76/148/40 77/119/40 78/118/40
f 79/120/41 80/153/41 81/121/41
f 82/79/42 83/115/42 84/80/42
f 73/209/43 66/210/43 65/211/43 74/212/43
f 79/10/44 68/9/44 67/213/44 80/214/44
f 82/215/45 70/216/45 69/46/45 83/45/45
f 71/217/46 77/218/46 76/110/46 72/109/46
f 70/219/24 82/220/24 74/212/24 65/211/24
