# Blender 3.6.5
# www.blender.org
mtllib Ground.mtl
o Plane
v 147.566010 0.000000 -223.164246
v -126.757141 0.000000 -223.164246
v -126.757141 0.000000 90.476151
v 141.041550 -9.376565 -233.202866
v 141.255264 0.000000 -223.164246
v -126.534248 -9.376565 -233.202866
v 18.008442 -9.376565 -233.202866
v 18.048399 0.000000 -223.164246
v 36.740723 0.000000 -223.164246
v 36.746483 -9.376565 -233.202866
v 18.048399 0.474984 -223.607910
v 17.837564 0.511007 -224.664291
v -125.997505 0.511006 -224.664291
v -126.757141 0.474984 -223.607910
v 141.041550 -8.901582 -233.646515
v 140.305679 -8.389559 -233.569672
v 140.496124 0.511007 -224.664291
v 141.255264 0.474984 -223.607910
v 17.857475 -8.389559 -233.569672
v 18.008442 -8.901582 -233.646515
v -126.534248 -8.901582 -233.646515
v -125.798866 -8.389561 -233.569672
v 36.925934 0.511005 -224.664291
v 36.740723 0.474984 -223.607910
v 36.746483 -8.901582 -233.646515
v 36.923065 -8.389559 -233.569672
v 141.072083 -8.037056 -231.768768
v 141.102600 -6.697547 -230.334686
v 141.133133 -5.358037 -228.900604
v 141.163666 -4.018528 -227.466507
v 141.194199 -2.679019 -226.032410
v 141.224731 -1.339509 -224.598328
v -126.725296 -1.339509 -224.598328
v -126.693451 -2.679019 -226.032425
v -126.661606 -4.018528 -227.466522
v -126.629753 -5.358037 -228.900604
v -126.597923 -6.697547 -230.334686
v -126.566093 -8.037056 -231.768784
v 18.042688 -1.339509 -224.598328
v 18.036983 -2.679019 -226.032425
v 18.031273 -4.018528 -227.466522
v 18.025566 -5.358037 -228.900604
v 18.019857 -6.697547 -230.334686
v 18.014151 -8.037056 -231.768784
v 36.741547 -1.339509 -224.598328
v 36.742371 -2.679019 -226.032425
v 36.743195 -4.018528 -227.466522
v 36.744019 -5.358037 -228.900604
v 36.744839 -6.697547 -230.334686
v 36.745659 -8.037056 -231.768784
v 140.332886 -5.541549 -232.010406
v 140.360092 -5.552971 -230.550903
v 140.387299 -3.154063 -229.454346
v 140.414505 -3.165485 -227.994843
v 140.441727 -0.766577 -226.898285
v 140.468918 -0.777999 -225.438782
v 141.224731 -0.864526 -225.041992
v 141.194199 -2.204035 -226.476074
v 141.163666 -3.543544 -227.910172
v 141.133133 -4.883053 -229.344269
v 141.102600 -6.222563 -230.778351
v 141.072083 -7.562073 -232.212433
v -125.969124 -0.778001 -225.438782
v -125.940742 -0.766579 -226.898270
v -125.912369 -3.165487 -227.994843
v -125.883987 -3.154065 -229.454330
v -125.855606 -5.552974 -230.550903
v -125.827248 -5.541551 -232.010391
v -126.566093 -7.562073 -232.212433
v -126.597939 -6.222563 -230.778351
v -126.629784 -4.883054 -229.344254
v -126.661613 -3.543545 -227.910156
v -126.693459 -2.204035 -226.476074
v -126.725311 -0.864526 -225.041992
v 18.042688 -0.864526 -225.041992
v 18.036983 -2.204035 -226.476074
v 18.031273 -3.543545 -227.910172
v 18.025566 -4.883054 -229.344269
v 18.019857 -6.222563 -230.778351
v 18.014151 -7.562073 -232.212433
v 17.854630 -5.541549 -232.010406
v 17.851786 -5.552971 -230.550903
v 17.848944 -3.154063 -229.454346
v 17.846096 -3.165485 -227.994843
v 17.843254 -0.766577 -226.898285
v 17.840406 -0.778000 -225.438782
v 36.925526 -0.778001 -225.438782
v 36.925114 -0.766579 -226.898270
v 36.924706 -3.165487 -227.994843
v 36.924294 -3.154064 -229.454330
v 36.923882 -5.552972 -230.550903
v 36.923473 -5.541550 -232.010391
v 36.745659 -7.562073 -232.212433
v 36.744835 -6.222563 -230.778351
v 36.744011 -4.883054 -229.344254
v 36.743187 -3.543544 -227.910156
v 36.742367 -2.204035 -226.476074
v 36.741547 -0.864525 -225.041992
v 147.566010 -9.418549 -223.164246
v -126.757141 -9.418549 90.476151
v 141.251663 -9.418549 -223.164246
v 32.257118 0.000000 90.476151
v -126.757141 0.000000 -151.578522
v 147.566010 0.000000 -151.578537
v 35.717804 0.000000 -151.578522
v 50.109707 0.000000 90.476151
v 147.566010 0.000000 -6.980164
v 50.109699 -9.418549 90.476151
vn -0.0000 1.0000 -0.0000
vn 0.9999 -0.0106 -0.0114
vn -0.0000 0.7308 -0.6826
vn -0.0000 -0.6826 -0.7308
vn 1.0000 -0.0020 -0.0021
vn -0.0000 0.5150 -0.8572
vn -0.0000 0.6826 0.7308
vn -0.9999 -0.0111 -0.0119
vn -1.0000 -0.0003 -0.0003
vn -0.0000 0.9994 0.0341
vn 0.6217 0.4958 -0.6063
vn -0.0000 0.1484 -0.9889
vn -0.6389 0.4413 -0.6302
vn 0.9701 0.1407 -0.1978
vn -0.9618 0.1591 -0.2227
vn -0.9552 0.1903 -0.2266
vn -0.9782 0.1888 -0.0868
vn -0.9693 0.1377 -0.2035
vn -0.9840 0.1621 -0.0745
vn -0.9609 0.1552 -0.2294
vn -0.9878 0.1414 -0.0651
vn 0.9450 0.2098 -0.2510
vn 0.9747 0.2028 -0.0940
vn 0.9668 0.1426 -0.2118
vn 0.9839 0.1620 -0.0753
vn 0.9636 0.1493 -0.2217
vn 0.9896 0.1302 -0.0607
vn -0.6217 0.4955 -0.6067
vn -0.7534 0.5916 -0.2872
vn -0.6875 0.3995 -0.6065
vn -0.7978 0.5415 -0.2652
vn -0.6355 0.4258 -0.6441
vn -0.8321 0.4973 -0.2456
vn 0.6389 0.4415 -0.6300
vn 0.8322 0.4975 -0.2449
vn 0.6357 0.4260 -0.6438
vn 0.7979 0.5417 -0.2645
vn 0.6877 0.3996 -0.6060
vn 0.7535 0.5917 -0.2866
vn -0.0000 0.4802 -0.8771
vn -0.0000 1.0000 0.0078
vn -0.0000 0.4157 -0.9095
vn -0.9999 -0.0111 -0.0118
vn -0.0000 -0.0000 -1.0000
vn -0.0000 -0.0000 1.0000
vt 0.847790 0.969256
vt 0.847791 0.748031
vt 0.502126 0.748031
vt 0.505287 0.969255
vt 0.828287 0.969256
vt 0.852262 0.595128
vt 0.854265 0.595127
vt 0.854265 0.589062
vt 0.852262 0.589063
vt 0.447501 0.973647
vt 0.505290 0.973647
vt 0.447519 0.969255
vt 0.878367 0.894225
vt 0.880375 0.894225
vt 0.880375 0.447519
vt 0.878367 0.447519
vt 0.852262 0.637584
vt 0.854265 0.637585
vt 0.854265 0.631520
vt 0.852262 0.631519
vt 0.852262 0.546604
vt 0.850253 0.546604
vt 0.850253 0.868925
vt 0.852262 0.868925
vt 0.906272 0.448090
vt 0.906271 0.768089
vt 0.908626 0.768173
vt 0.908627 0.448091
vt 0.847791 0.869604
vt 0.849259 0.869604
vt 0.849259 0.546604
vt 0.847791 0.546604
vt 0.858569 0.582996
vt 0.856566 0.582995
vt 0.856566 0.589060
vt 0.858569 0.589062
vt 0.901801 0.002435
vt 0.901800 0.446876
vt 0.904155 0.446867
vt 0.904156 0.002348
vt 0.858433 0.710359
vt 0.856430 0.710360
vt 0.856430 0.716425
vt 0.858433 0.716424
vt 0.907421 0.447519
vt 0.907421 -0.000000
vt 0.855471 0.624720
vt 0.854265 0.625453
vt 0.854265 0.631518
vt 0.856744 0.629188
vt 0.881370 0.893758
vt 0.881370 0.449791
vt 0.852262 0.557368
vt 0.856566 0.552669
vt 0.856566 0.546604
vt 0.855401 0.547840
vt 0.858428 0.642301
vt 0.855292 0.632770
vt 0.911892 0.770519
vt 0.911892 0.447519
vt 0.849259 0.548878
vt 0.849259 0.868380
vt 0.852263 0.684755
vt 0.856430 0.680038
vt 0.856430 0.673973
vt 0.855397 0.675224
vt 0.876899 0.895037
vt 0.878367 0.895037
vt 0.878367 0.447519
vt 0.876899 0.447519
vt 0.854083 0.714112
vt 0.855357 0.709643
vt 0.856430 0.704296
vt 0.852262 0.706373
vt 0.856430 0.698231
vt 0.855358 0.698834
vt 0.856430 0.692167
vt 0.852262 0.695564
vt 0.856430 0.686102
vt 0.855358 0.688025
vt 0.854265 0.673972
vt 0.856617 0.671658
vt 0.855342 0.667190
vt 0.854265 0.667908
vt 0.858436 0.663919
vt 0.854265 0.661843
vt 0.855338 0.656381
vt 0.854265 0.655779
vt 0.858432 0.653110
vt 0.854265 0.649714
vt 0.855334 0.645572
vt 0.854265 0.643649
vt 0.854088 0.586731
vt 0.855360 0.582263
vt 0.856566 0.576930
vt 0.852262 0.578989
vt 0.856566 0.570864
vt 0.855360 0.571453
vt 0.856566 0.564799
vt 0.852262 0.568178
vt 0.856566 0.558734
vt 0.855360 0.560643
vt 0.855431 0.590296
vt 0.858570 0.599825
vt 0.854265 0.601192
vt 0.855471 0.603099
vt 0.854265 0.607257
vt 0.858570 0.610635
vt 0.854265 0.613322
vt 0.855471 0.613910
vt 0.854265 0.619388
vt 0.858570 0.621445
vt 0.858433 0.673972
vt 0.858433 0.680037
vt 0.858433 0.686101
vt 0.858433 0.692166
vt 0.858433 0.698230
vt 0.858433 0.704295
vt 0.876899 0.002961
vt 0.876899 0.446929
vt 0.881633 0.446920
vt 0.881633 0.002874
vt 0.886144 0.446911
vt 0.886144 0.002786
vt 0.889461 0.446902
vt 0.889462 0.002698
vt 0.893972 0.446894
vt 0.893972 0.002611
vt 0.897290 0.446885
vt 0.897290 0.002523
vt 0.858569 0.546605
vt 0.858569 0.552670
vt 0.858569 0.558735
vt 0.858569 0.564801
vt 0.858569 0.570866
vt 0.858569 0.576931
vt 0.881370 0.448082
vt 0.881370 0.767584
vt 0.886104 0.767668
vt 0.886104 0.448083
vt 0.890615 0.767752
vt 0.890615 0.448085
vt 0.893932 0.767836
vt 0.893933 0.448086
vt 0.898443 0.767921
vt 0.898443 0.448087
vt 0.901761 0.768005
vt 0.901761 0.448089
vt 0.852262 0.673972
vt 0.852262 0.667907
vt 0.852262 0.661842
vt 0.852262 0.655778
vt 0.852262 0.649713
vt 0.852262 0.643649
vt 0.447395 1.000000
vt 0.505305 1.000000
vt 0.505302 0.995608
vt 0.447413 0.995608
vt 0.505300 0.991216
vt 0.447430 0.991216
vt 0.505297 0.986824
vt 0.447448 0.986824
vt 0.505295 0.982432
vt 0.447466 0.982432
vt 0.505292 0.978040
vt 0.447483 0.978040
vt 0.852262 0.631519
vt 0.852262 0.625454
vt 0.852262 0.619389
vt 0.852262 0.613324
vt 0.852262 0.607258
vt 0.852262 0.601193
vt 0.871765 0.737697
vt 0.871776 0.716425
vt 0.852262 0.716425
vt 0.852262 0.737697
vt 0.491431 0.000000
vt 0.000001 0.000000
vt 0.000000 0.748031
vt 0.876899 -0.000000
vt 0.847791 0.000000
vt 0.847791 0.546604
vt 0.876899 0.546604
vt 0.876899 0.055173
vt 0.000000 0.969255
vt 0.847791 0.301174
vt 0.546604 0.000000
s 0
usemtl Material
f 1/1/1 5/5/1 9/4/1 105/3/1 104/2/1
f 27/6/2 4/9/2 15/8/2 62/7/2
f 39/10/3 8/12/3 9/4/3 45/11/3
f 7/13/4 6/16/4 21/15/4 20/14/4
f 44/17/5 7/20/5 20/19/5 80/18/5
f 4/21/4 10/24/4 25/23/4 15/22/4
f 87/25/6 23/28/6 17/27/6 56/26/6
f 9/29/7 5/32/7 18/31/7 24/30/7
f 33/33/8 2/36/8 14/35/8 74/34/8
f 63/37/6 13/40/6 12/39/6 86/38/6
f 45/41/9 9/44/9 24/43/9 98/42/9
f 12/39/10 13/40/10 14/46/10 11/45/10
f 56/47/11 17/50/11 18/49/11 57/48/11
f 20/14/12 21/15/12 22/52/12 19/51/12
f 68/53/13 22/56/13 21/55/13 69/54/13
f 80/18/14 20/19/14 19/58/14 81/57/14
f 17/27/10 23/28/10 24/60/10 18/59/10
f 15/22/12 25/23/12 26/62/12 16/61/12
f 92/63/15 26/66/15 25/65/15 93/64/15
f 2/67/7 8/70/7 11/69/7 14/68/7
f 23/71/16 87/72/16 98/42/16 24/43/16
f 87/72/17 88/74/17 97/73/17 98/42/17
f 88/74/18 89/76/18 96/75/18 97/73/18
f 89/76/19 90/78/19 95/77/19 96/75/19
f 90/78/20 91/80/20 94/79/20 95/77/20
f 91/80/21 92/63/21 93/64/21 94/79/21
f 11/81/22 75/84/22 86/83/22 12/82/22
f 75/84/23 76/86/23 85/85/23 86/83/23
f 76/86/24 77/88/24 84/87/24 85/85/24
f 77/88/25 78/90/25 83/89/25 84/87/25
f 78/90/26 79/92/26 82/91/26 83/89/26
f 79/92/27 80/18/27 81/57/27 82/91/27
f 13/93/28 63/94/28 74/34/28 14/35/28
f 63/94/29 64/96/29 73/95/29 74/34/29
f 64/96/30 65/98/30 72/97/30 73/95/30
f 65/98/31 66/100/31 71/99/31 72/97/31
f 66/100/32 67/102/32 70/101/32 71/99/32
f 67/102/33 68/53/33 69/54/33 70/101/33
f 16/103/34 51/104/34 62/7/34 15/8/34
f 51/104/35 52/106/35 61/105/35 62/7/35
f 52/106/36 53/108/36 60/107/36 61/105/36
f 53/108/37 54/110/37 59/109/37 60/107/37
f 54/110/38 55/112/38 58/111/38 59/109/38
f 55/112/39 56/47/39 57/48/39 58/111/39
f 10/113/9 50/114/9 93/64/9 25/65/9
f 50/114/9 49/115/9 94/79/9 93/64/9
f 49/115/9 48/116/9 95/77/9 94/79/9
f 48/116/9 47/117/9 96/75/9 95/77/9
f 47/117/9 46/118/9 97/73/9 96/75/9
f 46/118/9 45/41/9 98/42/9 97/73/9
f 22/119/40 68/122/40 81/121/40 19/120/40
f 68/122/41 67/124/41 82/123/41 81/121/41
f 67/124/42 66/126/42 83/125/42 82/123/42
f 66/126/41 65/128/41 84/127/41 83/125/41
f 65/128/42 64/130/42 85/129/42 84/127/42
f 64/130/41 63/37/41 86/38/41 85/129/41
f 6/131/8 38/132/8 69/54/8 21/55/8
f 38/132/8 37/133/8 70/101/8 69/54/8
f 37/133/43 36/134/43 71/99/43 70/101/43
f 36/134/43 35/135/43 72/97/43 71/99/43
f 35/135/43 34/136/43 73/95/43 72/97/43
f 34/136/43 33/33/43 74/34/43 73/95/43
f 26/137/40 92/140/40 51/139/40 16/138/40
f 92/140/41 91/142/41 52/141/41 51/139/41
f 91/142/42 90/144/42 53/143/42 52/141/42
f 90/144/41 89/146/41 54/145/41 53/143/41
f 89/146/42 88/148/42 55/147/42 54/145/42
f 88/148/41 87/25/41 56/26/41 55/147/41
f 8/149/5 39/150/5 75/84/5 11/81/5
f 39/150/5 40/151/5 76/86/5 75/84/5
f 40/151/5 41/152/5 77/88/5 76/86/5
f 41/152/5 42/153/5 78/90/5 77/88/5
f 42/153/5 43/154/5 79/92/5 78/90/5
f 43/154/5 44/17/5 80/18/5 79/92/5
f 7/155/3 44/158/3 50/157/3 10/156/3
f 44/158/3 43/160/3 49/159/3 50/157/3
f 43/160/3 42/162/3 48/161/3 49/159/3
f 42/162/3 41/164/3 47/163/3 48/161/3
f 41/164/3 40/166/3 46/165/3 47/163/3
f 40/166/3 39/10/3 45/11/3 46/165/3
f 5/167/2 32/168/2 57/48/2 18/49/2
f 32/168/2 31/169/2 58/111/2 57/48/2
f 31/169/2 30/170/2 59/109/2 58/111/2
f 30/170/2 29/171/2 60/107/2 59/109/2
f 29/171/2 28/172/2 61/105/2 60/107/2
f 28/172/2 27/6/2 62/7/2 61/105/2
f 5/173/44 1/176/44 99/175/44 101/174/44
f 102/177/1 105/3/1 103/179/1 3/178/1
f 106/180/45 102/184/45 3/183/45 100/182/45 108/181/45
f 103/179/1 105/3/1 9/4/1 8/12/1 2/185/1
f 104/2/1 105/3/1 102/177/1 106/187/1 107/186/1
